<?xml version="1.0" encoding="UTF-8"?>
<svg width="121px" height="54px" viewBox="0 0 121 54" version="1.1" xmlns="http://www.w3.org/2000/svg" xmlns:xlink="http://www.w3.org/1999/xlink">
    <!-- Generator: sketchtool 52.2 (67145) - http://www.bohemiancoding.com/sketch -->
    <title>8A79855A-9C05-445D-B3A7-FF9F938D7333@3x</title>
    <desc>Created with sketchtool.</desc>
    <g id="Designs" stroke="none" stroke-width="1" fill="none" fill-rule="evenodd">
        <g id="Desktop-—-Producto" transform="translate(-100.000000, -13.000000)" fill="#000000" fill-rule="nonzero">
            <g id="Header-/-Desktop">
                <g id="Header">
                    <g id="Logo" transform="translate(100.000000, 9.000000)">
                        <g id="SingularCover_logo_2lines@1x" transform="translate(0.000000, 4.428571)">
                            <path d="M9.62345558,25.5709238 C6.39388915,25.5709238 4.07773542,24.8081077 2.51188502,23.448305 C0.946034633,22.0885023 0.130487528,20.1648789 0,17.7769328 L5.05639193,17.7769328 C5.18687946,18.8382422 5.44785452,19.8332197 6.13291404,20.4965382 C6.81797361,21.1930224 7.89449578,21.6573453 9.62345558,21.6573453 C11.9722312,21.6573453 13.4728378,20.3638745 13.4728378,18.506583 C13.4728378,17.5779373 13.2118628,16.9477848 12.5594251,16.450296 C11.8743655,16.019139 10.7652215,15.6874798 9.06888358,15.4221525 C6.06767027,15.0241615 3.97986977,14.394009 2.64237255,13.2332018 C1.23963157,12.1387265 0.65243764,10.5135964 0.65243764,8.22514802 C0.65243764,6.20202692 1.50060663,4.44423321 2.96859137,3.15076236 C4.43657612,1.92362334 6.55699856,1.16080723 9.13412735,1.16080723 C14.3862505,1.16080723 17.4527076,3.51558745 17.8767921,8.25831394 L13.0161314,8.25831394 C12.7225345,6.13569508 11.3850373,5.10755163 9.13412735,5.10755163 C6.78535173,5.10755163 5.64358581,6.20202692 5.64358581,7.79399103 C5.64358581,8.62313904 5.8393171,9.28645745 6.49175479,9.71761439 C7.11157055,10.2151032 8.18809271,10.5467623 9.98229628,10.8120897 C12.8204001,11.1769148 14.9408226,11.7739014 16.3761854,12.8352108 C17.8115483,13.9296861 18.5292297,15.5879821 18.5292297,18.0090942 C18.5292297,20.131713 17.6810608,22.0221704 16.1478323,23.3488072 C14.6146037,24.7086099 12.3636938,25.5709238 9.62345558,25.5709238 Z M23.1343508,5.50554257 C21.6011224,5.50554257 20.4593565,4.37790131 20.4593565,2.88543496 C20.4593565,1.3929686 21.6011224,0.265327345 23.1343508,0.265327345 C24.6675793,0.265327345 25.841967,1.3929686 25.841967,2.88543496 C25.841967,4.37790131 24.6675793,5.50554257 23.1343508,5.50554257 Z M20.818198,7.86032284 L25.5157492,7.86032284 L25.5157492,25.2060987 L20.818198,25.2060987 L20.818198,7.86032284 Z M28.6202643,7.86032281 L33.3504373,7.86032281 L33.3504373,10.613094 C34.231228,8.88846624 36.0254314,7.46233175 38.8961569,7.46233175 C40.5924947,7.46233175 41.9952355,7.99298648 43.0391357,9.05429583 C44.0504145,10.1487711 44.6376083,11.8733989 44.6376083,14.1618473 L44.6376083,25.2060981 L39.9074352,25.2060981 L39.9074352,14.8583316 C39.9074352,12.4703855 38.9940225,11.3759101 36.9062222,11.3759101 C34.8510438,11.3759101 33.3504373,12.636215 33.3504373,15.1899908 L33.3504373,25.2060981 L28.6202643,25.2060981 L28.6202643,7.86032281 Z M55.0168055,31.6071213 C52.2765676,31.6071213 50.2213891,31.0101347 48.883892,29.9488253 C47.4811511,28.8875159 46.7634698,27.3950495 46.5351166,25.5709239 L51.2326674,25.5709239 C51.5262643,27.1297221 52.5701645,28.0915338 55.0168055,28.0915338 C57.8875316,28.0915338 59.3228943,26.5990674 59.3228943,23.8462961 L59.3228943,21.2261884 C58.8335661,22.0553364 58.1158847,22.8844844 57.1698502,23.4483051 C56.2238157,24.0784575 55.1146712,24.4432826 53.8424178,24.4432826 C51.7546175,24.4432826 49.8951703,23.6473006 48.5902951,22.221166 C47.252798,20.7950315 46.4046291,18.7055785 46.4046291,16.1518027 L46.4046291,15.9196413 C46.4046291,13.4321973 47.2201761,11.3095784 48.5576732,9.81711207 C49.8951703,8.3578116 51.7872394,7.46233175 53.9076616,7.46233175 C56.680522,7.46233175 58.311616,8.68947079 59.3228943,10.4472645 L59.3228943,7.86032283 L64.0204451,7.86032283 L64.0204451,23.8462961 C63.9878233,29.0201796 60.6603914,31.6071213 55.0168055,31.6071213 Z M55.245159,20.8281974 C57.7244226,20.8281974 59.4533823,19.0372378 59.4533823,16.085471 L59.4533823,15.8533096 C59.4533823,12.9015428 57.9527758,11.1105832 55.3430246,11.1105832 C52.7006521,11.1105832 51.2326674,13.0010406 51.2326674,15.8864755 L51.2326674,16.1518028 C51.2326674,19.0704037 52.8963834,20.8281974 55.245159,20.8281974 Z M72.638061,25.5709233 C70.9743451,25.5709233 69.5389824,25.0734346 68.4950822,24.0121252 C67.4511815,22.9508157 66.8313658,21.2925198 66.8313658,19.0372374 L66.8313658,7.86032284 L71.5289171,7.86032284 L71.5289171,18.373919 C71.5289171,20.6623674 72.5401954,21.8563405 74.4975082,21.8563405 C76.4874429,21.8563405 78.0532932,20.5960356 78.0532932,18.0422598 L78.0532932,7.86032284 L82.7508445,7.86032284 L82.7508445,25.2060982 L78.0532932,25.2060982 L78.0532932,22.4864929 C77.1725024,24.2442866 75.4761646,25.5709233 72.638061,25.5709233 Z M85.8227318,0 L90.5202827,0 L90.5202827,25.2060999 L85.8227318,25.2060999 L85.8227318,0 Z M98.1918703,25.5709239 C96.62602,25.5709239 95.2232791,25.1729329 94.179379,24.3437849 C93.1354788,23.5146369 92.4830412,22.2211661 92.4830412,20.3970405 C92.4830412,18.3739194 93.3964538,16.9809507 94.9623041,16.0854709 C96.5281544,15.1899911 98.7464422,14.825166 101.356193,14.825166 L103.280884,14.825166 L103.280884,14.1286816 C103.280884,12.0392287 102.69369,10.9447534 100.508024,10.9447534 C98.6485766,10.9447534 97.8330296,11.906565 97.6046764,13.3990314 L93.1354788,13.3990314 C93.2659663,11.3759103 94.179379,9.85027799 95.5168761,8.8884663 C96.8543732,7.92665467 98.7138204,7.46233175 100.801621,7.46233175 C102.889421,7.46233175 104.651003,7.89348875 105.955878,8.92163222 C107.228132,9.94977574 107.945813,11.5417399 107.945813,13.8965202 L107.945813,25.2060988 L103.346127,25.2060988 L103.346127,23.1166458 C102.334849,24.5427805 100.899486,25.5709239 98.1918703,25.5709239 Z M99.5946095,22.2211656 C101.68241,22.2211656 103.280882,21.0935243 103.280882,19.1367351 L103.280882,17.6774346 L101.454057,17.6774346 C98.7138187,17.6774346 97.1153465,18.2744211 97.1153465,20.1317126 C97.1153465,21.4251835 97.8656498,22.2211656 99.5946095,22.2211656 Z M110.756729,7.86032264 L115.486902,7.86032264 L115.486902,11.1769145 C116.563424,8.82213425 118.22714,7.62816116 121,7.59499525 L121,12.0723943 C117.476836,12.0392284 115.486902,13.2000355 115.486902,16.5166274 L115.486902,25.2060981 L110.756729,25.2060981 L110.756729,7.86032264 Z M11.6460115,53.1428571 C4.89328215,53.1428571 0.750303297,48.4332966 0.750303297,41.1367937 L0.750303297,40.8714663 C0.750303297,33.8402914 5.34998851,28.7659053 11.7112552,28.7659053 C16.5719155,28.7659053 20.6496506,31.386013 21.1716006,36.5267308 L18.3661189,36.5267308 C17.7463032,32.9116454 15.7563684,31.0543538 11.7438771,31.0543538 C6.91583878,31.0543538 3.68627261,34.8684349 3.68627261,40.8383004 L3.68627261,41.1036278 C3.68627261,47.1398257 6.68748562,50.7880768 11.7112552,50.7880768 C15.5280153,50.7880768 18.1377657,48.8644535 18.7575815,44.9840404 L21.3999538,44.9840404 C20.5844068,50.4564177 16.8655124,53.1428571 11.6460115,53.1428571 Z M31.3876889,50.8544083 C34.8129866,50.8544083 36.9660307,48.2343008 36.9660307,44.3207221 L36.9660307,44.0885607 C36.9660307,40.0754847 34.7803647,37.4885432 31.3876889,37.4885432 C27.9623914,37.4885432 25.8093472,40.0754847 25.8093472,44.0553948 L25.8093472,44.3207221 C25.8093472,48.3006327 27.8971476,50.8544083 31.3876889,50.8544083 Z M31.3550665,53.1428571 C26.4944059,53.1428571 23.0038644,49.3951083 23.0038644,44.3207221 L23.0038644,44.0553947 C23.0038644,38.8483454 26.5596496,35.2000943 31.3876884,35.2000943 C36.2157272,35.2000943 39.7715124,38.8151795 39.7715124,44.0222288 L39.7715124,44.2875562 C39.7715124,49.527772 36.1831053,53.1428571 31.3550665,53.1428571 Z M40.3315187,35.4985884 L43.2674881,35.4985884 L48.3238803,50.0584271 L53.3150281,35.4985884 L56.1205099,35.4985884 L49.9875962,52.8443643 L46.5296768,52.8443643 L40.3315187,35.4985884 Z M64.9338559,53.1428571 C60.1058175,53.1428571 56.6805199,49.6604356 56.6805199,44.353888 L56.6805199,44.0885607 C56.6805199,38.8483454 59.9753299,35.2000943 64.6728809,35.2000943 C68.6201285,35.2000943 72.3390236,37.6212064 72.3390236,43.8232333 L72.3390236,44.7187131 L59.4860017,44.7187131 C59.6164892,48.698624 61.4433146,50.8544087 64.9664778,50.8544087 C67.6414721,50.8544087 69.1420787,49.8594311 69.5009193,47.8363101 L72.2085361,47.8363101 C71.5887203,51.3187316 68.8158598,53.1428571 64.9338559,53.1428571 Z M69.5661629,42.4965967 C69.3051873,38.9146777 67.5109839,37.4885432 64.6728803,37.4885432 C61.9000204,37.4885432 60.0731951,39.4121664 59.5838669,42.4965967 L69.5661629,42.4965967 Z M75.2478096,35.4985876 L77.9554257,35.4985876 L77.9554257,38.6161839 C78.9993259,36.6593947 80.4999324,35.2995921 83.5663898,35.2000943 L83.5663898,37.7870359 C80.1410918,37.9528655 77.9554257,39.0473408 77.9554257,43.3257442 L77.9554257,52.8443631 L75.2478096,52.8443631 L75.2478096,35.4985876 Z" id="Singular-Cover"></path>
                        </g>
                    </g>
                </g>
            </g>
        </g>
    </g>
</svg>
